<?xml version="1.0" encoding="UTF-8" standalone="no"?>
<!-- Created with Inkscape (http://www.inkscape.org/) -->

<svg
   width="67.73333mm"
   height="67.733337mm"
   viewBox="0 0 67.73333 67.733337"
   version="1.1"
   id="svg1"
   inkscape:export-filename="lfo_floorp_docs_black.svg"
   inkscape:export-xdpi="8.5521889"
   inkscape:export-ydpi="8.5521889"
   xmlns:inkscape="http://www.inkscape.org/namespaces/inkscape"
   xmlns:sodipodi="http://sodipodi.sourceforge.net/DTD/sodipodi-0.dtd"
   xmlns="http://www.w3.org/2000/svg"
   xmlns:svg="http://www.w3.org/2000/svg">
  <sodipodi:namedview
     id="namedview1"
     pagecolor="#ffffff"
     bordercolor="#000000"
     borderopacity="0.25"
     inkscape:showpageshadow="2"
     inkscape:pageopacity="0.0"
     inkscape:pagecheckerboard="0"
     inkscape:deskcolor="#d1d1d1"
     inkscape:document-units="mm"
     inkscape:export-bgcolor="#00000000" />
  <defs
     id="defs1" />
  <g
     inkscape:label="Layer 1"
     inkscape:groupmode="layer"
     id="layer1">
    <ellipse
       style="fill:#ffffff;stroke-width:0.247174"
       id="path42"
       cx="34.065502"
       cy="33.837177"
       rx="32.695568"
       ry="32.010609" />
    <path
       style="fill:#000000;stroke-width:0.207169"
       d="M 22.14357,40.983951 47.016497,34.840767"
       id="path1" />
    <path
       style="fill:#000000;stroke-width:0.207169"
       id="path2"
       d="m 40.939686,31.116758 c 3.038513,-0.0434 6.200871,-0.519906 8.847172,-2.161243 0.59769,-0.370709 1.120917,-0.854926 1.681374,-1.282389 0.450361,-0.530379 0.954088,-1.01772 1.351083,-1.591139 1.629014,-2.352947 2.298116,-5.343721 2.395651,-8.185406 0.02374,-0.692792 -0.03272,-1.386036 -0.04904,-2.079053 -0.0861,-1.684497 -0.423294,-3.338367 -0.921683,-4.942583 C 54.117296,10.466323 53.778676,9.3203065 53.352345,9.0024533 52.40532,8.2964062 51.343732,7.7678338 50.339428,7.150524 50.08611,7.2778908 49.790186,7.3402884 49.579475,7.5326243 48.91979,8.1347795 48.485376,9.2538391 48.214033,10.043752 c -0.244164,0.710788 -0.445038,1.437427 -0.623993,2.168324 -0.476169,1.944782 -0.881494,4.343313 -1.237868,6.291203 -1.391498,7.76474 -1.681279,15.670458 -2.006099,23.539867 -0.110157,3.033657 -0.214743,6.067482 -0.275509,9.102666 -0.02311,1.154758 -0.07219,2.823472 0.0047,4.009242 0.03222,0.496997 0.115225,0.989167 0.172839,1.483747 0.120377,0.383472 0.202592,0.781823 0.361131,1.150432 0.670372,1.558634 1.908717,1.986982 3.601376,2.757493 0.245636,0.111813 0.554875,-0.01141 0.795668,-0.133836 0.75744,-0.384961 0.920411,-1.02786 1.291717,-1.748143 0.362136,-1.238225 0.663033,-1.936383 0.622605,-3.287001 -0.04671,-1.560364 -0.485573,-3.011062 -1.143571,-4.409726 -0.877717,-1.865697 -1.657084,-2.741084 -2.873711,-4.377398 -1.262794,-1.578732 -2.70819,-2.97773 -4.233839,-4.282794 -0.30029,-0.256872 -0.648318,-0.459996 -0.913964,-0.754242 -0.09743,-0.107927 -0.232154,-0.301229 -0.142692,-0.416177 0.149482,-0.19207 0.447747,-0.175631 0.67162,-0.263446 0.524657,-0.137908 1.044353,-0.297439 1.573971,-0.413727 0.740167,-0.162518 1.489041,-0.280173 2.233208,-0.422207 0.869074,-0.165873 1.739334,-0.325511 2.606509,-0.501514 2.481597,-0.503666 4.937261,-1.106613 7.396007,-1.713851 0,0 -2.045593,-1.443533 -2.045593,-1.443533 v 0 c -0.694092,0.197976 -1.385082,0.407745 -2.082272,0.593927 -1.92629,0.514408 -3.215153,0.816403 -5.191321,1.182522 -3.879009,0.71865 -1.42888,0.185809 -5.064223,0.776794 -0.602366,0.09793 -1.199051,0.229565 -1.798576,0.344348 -0.322273,0.197381 -0.775073,0.261318 -0.96682,0.592145 -0.114397,0.197371 0.102579,0.468487 0.254063,0.63759 0.289135,0.322767 0.688381,0.520005 1.024948,0.79019 1.62341,1.30322 3.161318,2.71244 4.494789,4.3322 1.203052,1.594359 1.985876,2.454574 2.840745,4.28138 0.622657,1.330577 1.033604,2.737763 1.046648,4.223007 0.01175,1.337379 -0.29321,1.917098 -0.706581,3.114046 -0.353757,0.585671 -0.553183,1.20099 -1.245353,1.44698 -0.213454,0.07587 -0.834661,-0.165346 -0.677763,0.0016 0.469239,0.498291 1.062066,0.93573 1.71771,1.103074 0.699927,0.178641 -2.301957,-2.112684 -1.03627,-1.947077 -0.088,-0.500113 -0.203464,-0.995945 -0.263989,-1.500323 -0.149744,-1.247849 -0.174461,-2.865836 -0.202256,-4.096767 -0.0696,-3.082146 -0.07074,-6.165184 -0.01604,-9.247665 0.03111,-1.279625 0.04901,-2.559657 0.09334,-3.838871 0.227776,-6.573389 0.73691,-13.156919 1.99386,-19.61587 0.563154,-2.560964 0.744607,-3.677835 1.508223,-6.108914 0.21901,-0.697253 0.459661,-1.389023 0.745747,-2.060267 0.294934,-0.692013 0.783296,-1.7274699 1.458899,-2.1986318 0.177365,-0.1236941 0.41649,-0.1056406 0.624737,-0.1584605 -0.618959,-0.3916335 -1.169619,-0.930654 -1.856872,-1.1748989 -0.291812,-0.1037079 0.439345,0.454257 0.596305,0.7269012 0.200525,0.3483232 0.326316,0.7371774 0.464614,1.1159656 0.58201,1.5941004 0.969135,3.2540644 1.100994,4.9531844 0.02862,0.687698 0.100921,1.374944 0.08586,2.063094 -0.06108,2.79025 -0.743779,5.726301 -2.338649,8.03254 -0.385993,0.558161 -0.875348,1.033102 -1.313021,1.549654 -0.546965,0.416735 -1.056114,0.891451 -1.640897,1.250206 -2.333934,1.431833 -5.157048,1.953243 -7.845922,1.880933 -0.436154,-0.01173 -0.868337,-0.08839 -1.302505,-0.132588 z"
       inkscape:export-filename="floorp.svg"
       inkscape:export-xdpi="8.5521889"
       inkscape:export-ydpi="8.5521889" />
    <path
       style="fill:#000000;stroke-width:0.207169"
       id="path31"
       d="m 10.857493,52.600366 c 0.0027,-0.108359 8.2e-5,-0.217003 0.0082,-0.325078 0.04414,-0.585952 0.129233,-1.168131 0.174486,-1.753993 0.128799,-1.667458 0.123224,-2.286608 0.207321,-4.080879 0.04619,-0.985494 0.100047,-1.970599 0.150071,-2.955898 0.188351,-2.712031 0.255899,-4.182354 0.590322,-6.908283 0.271382,-2.212083 0.644517,-4.432836 1.095518,-6.614181 0.197157,-0.953591 0.410584,-1.904023 0.649883,-2.847426 0.213798,-0.84287 0.472634,-1.673056 0.708951,-2.509585 0.615876,-2.037588 1.448147,-3.998162 2.50295,-5.83707 0.35469,-0.618353 1.007545,-1.650922 1.518727,-2.203065 0.191079,-0.206391 0.429367,-0.360751 0.64405,-0.541126 0.200515,-0.01647 0.801134,-0.07508 0.601544,-0.0494 -0.720874,0.09276 -1.51046,-0.07073 -2.165834,0.250689 -0.236604,0.11604 0.423339,0.321487 0.606227,0.5142 0.392395,0.413476 0.771724,1.015225 1.041516,1.515609 0.148881,0.276133 0.271792,0.56616 0.407688,0.849239 0.294166,0.701042 0.536008,1.421402 0.753428,2.150466 0.126625,0.424611 0.129198,0.619279 0.433582,0.957494 0.121506,0.135009 0.281844,0.226931 0.422766,0.340397 0.530071,0.231826 0.558013,0.276188 1.126981,0.395765 0.189981,0.03993 0.381726,0.08545 0.575657,0.08642 0.30474,0.0015 2.919654,0.43033 3.858378,-0.349562 0.197081,-0.163734 0.334112,-0.391384 0.501169,-0.587077 0.703349,-1.155789 1.171548,-2.436408 1.716052,-3.67322 0.359366,-0.816281 0.323202,-0.720317 0.703644,-1.457847 0.147487,-0.220371 0.398952,-0.664953 0.655141,-0.813819 0.102354,-0.05948 0.464711,-0.06991 0.347128,-0.06556 -0.839609,0.03107 -1.693856,-0.0293 -2.516448,0.145851 -0.162751,0.03466 0.283473,0.183592 0.400346,0.304748 0.179806,0.186393 0.322003,0.407311 0.483006,0.610966 0.169581,0.299298 0.351918,0.591377 0.508743,0.897896 0.382858,0.748314 0.806917,1.748821 1.103102,2.524052 0.494019,1.293032 0.780864,2.179792 1.163531,3.528879 0.201157,0.70918 0.379109,1.42506 0.568663,2.13759 0.681762,2.559041 1.13124,5.175837 1.530663,7.794192 0.13324,0.87344 0.242838,1.750516 0.371557,2.624667 0.320759,2.178316 0.445745,2.890843 0.797766,5.04504 0.122019,0.763545 0.246628,1.526662 0.366054,2.290638 0.108388,0.693374 0.207633,1.388239 0.317389,2.081389 0.300449,1.897456 0.623305,3.79114 0.916525,5.68983 0.142183,0.966091 0.07179,0.514995 0.208311,1.353753 0,0 2.769132,-0.07254 2.769132,-0.07254 v 0 C 39.39325,52.217371 39.542937,52.664042 39.237514,51.70271 39.134088,51.368878 39.025607,51.036648 38.927236,50.701215 38.476328,49.163715 38.082395,47.602114 37.734572,46.037024 37.581003,45.345998 37.444414,44.651117 37.301995,43.957586 37.14549,43.195469 36.992538,42.43259 36.837809,41.670092 36.685892,40.847197 36.525476,40.025898 36.382061,39.201399 35.965511,36.80663 35.940048,36.419974 35.567239,34.004387 35.101877,30.98911 35.19728,31.708197 34.707134,28.709551 34.570022,27.870727 34.43784,27.031065 34.303193,26.191823 c -0.144098,-0.716288 -0.274791,-1.435547 -0.432295,-2.148865 -0.139439,-0.631503 -0.299534,-1.258076 -0.45835,-1.884754 -0.14168,-0.559067 -0.280693,-1.119169 -0.443084,-1.672287 -0.136248,-0.46408 -0.297665,-0.920033 -0.452444,-1.377968 -0.415127,-1.228203 -0.345078,-1.012574 -0.788126,-2.118929 -0.0049,-0.0094 -0.498673,-1.07547 -0.69084,-1.106147 -1.063055,-0.169711 -2.148803,-0.164106 -3.224516,-0.145018 -0.120222,0.0021 -0.213943,0.119949 -0.298534,0.207535 -0.245304,0.253991 -0.372936,0.590629 -0.523929,0.902579 -0.186283,0.490736 -0.368668,0.983024 -0.555716,1.473455 -0.365645,0.958707 -0.739956,1.930605 -1.284544,2.801741 -0.165164,0.264202 -0.366055,0.503063 -0.549082,0.754594 -0.192031,0.159398 -0.363068,0.349843 -0.576092,0.478196 -0.167139,0.100706 -0.739634,0.167775 -0.548199,0.199222 0.716766,0.117747 1.450834,0.06177 2.176717,0.0683 0.192558,0.0018 -0.384843,-0.02473 -0.575296,-0.05388 -0.502956,-0.07699 -0.598861,-0.132759 -1.069525,-0.294783 -0.135397,-0.08298 -0.28494,-0.14551 -0.406192,-0.248952 -0.334965,-0.285772 -0.346645,-0.459723 -0.516145,-0.869679 -0.300096,-0.725817 -0.590643,-1.455989 -0.914975,-2.171004 -0.135074,-0.290797 -0.259125,-0.587249 -0.405224,-0.872391 -0.233363,-0.455458 -0.660485,-1.180361 -0.970305,-1.591805 -0.162319,-0.215562 -0.271386,-0.547732 -0.529985,-0.610102 -2.743416,-0.661678 -2.414129,-0.710559 -3.807995,-0.09969 -0.153921,0.200601 -0.324685,0.388753 -0.461764,0.601801 -0.412058,0.640424 -0.862092,1.583895 -1.161836,2.256869 -0.847516,1.902815 -1.553202,3.870057 -2.079637,5.89213 -0.179556,0.840452 -0.377936,1.67691 -0.538667,2.521356 -0.384422,2.019673 -0.658238,3.989134 -0.93387,6.02893 -0.155265,1.149025 -0.294531,2.30027 -0.445876,3.449844 -0.15629,1.187127 -0.318223,2.373467 -0.477027,3.560241 -0.149243,1.115318 -0.298077,2.230692 -0.4471162,3.346037 -0.154118,0.983183 -0.2908952,1.969388 -0.4623546,2.94955 -0.3030316,1.732309 -0.6755445,3.455799 -1.2376896,5.121281 -0.11125,0.329602 -0.2601722,0.678786 -0.3958367,1.005079 z" />
    <ellipse
       style="fill:#000000;stroke-width:0.207169"
       id="path32"
       cx="19.597488"
       cy="30.043194"
       rx="1.5186265"
       ry="1.9909477" />
    <ellipse
       style="fill:#000000;stroke-width:0.207169"
       id="path32-6"
       cx="27.499098"
       cy="30.009087"
       rx="1.5186265"
       ry="1.9909477" />
    <path
       style="fill:#000000;stroke-width:0.207169"
       id="path34"
       d="m 21.557893,33.871027 c -0.03887,0.939939 -0.391928,1.830382 -0.680534,2.7115 -0.502455,1.534008 -0.247746,0.791543 -0.798471,2.321189 -0.192596,0.545673 -0.516941,1.483124 -0.736839,2.039828 -0.09706,0.245713 -0.190642,0.493909 -0.310555,0.728782 -0.07665,0.150126 -0.184558,0.281164 -0.276838,0.421744 0,0 2.829572,0.125558 2.829572,0.125558 v 0 c 0.280972,-1.08282 0.555161,-2.168955 0.915175,-3.227866 0.140411,-0.387124 0.272338,-0.777591 0.421234,-1.161367 0.511422,-1.318173 1.138237,-2.584229 1.658496,-3.898233 z" />
    <path
       style="fill:#000000;stroke-width:0.207169"
       id="path35"
       d="m 20.986568,37.616709 c 0.869028,0.73947 1.687803,1.532291 2.555081,2.275251 0.613931,0.50482 0.316567,0.262942 0.891581,0.726296 0,0 2.780579,-0.267216 2.780579,-0.267216 v 0 C 26.58559,39.903689 26.906655,40.13791 26.251593,39.64697 26.079383,39.502506 25.903207,39.362871 25.734962,39.213577 25.104926,38.654504 24.511806,38.041236 23.991253,37.37433 Z" />
    <path
       style="fill:#000000;stroke-width:0.207169"
       id="path36"
       d="m 15.183942,34.135341 c -0.177826,-0.121233 -0.358122,-0.238745 -0.53348,-0.363698 -1.704954,-1.214898 -3.380925,-2.4759 -4.9983314,-3.811117 -0.7048052,-0.581839 -1.3883795,-1.190187 -2.0825692,-1.785281 0,0 -1.5869183,0.141829 -1.5869183,0.141829 v 0 c 0.6826089,0.596036 1.3777335,1.177335 2.0478266,1.788111 1.5072779,1.373851 1.8545161,1.752515 3.1458653,3.142965 0.235032,0.253067 0.469982,0.506395 0.696605,0.767397 0.104966,0.120889 0.198425,0.251777 0.297637,0.377668 z" />
    <path
       style="fill:#000000;stroke-width:0.207169"
       id="path37"
       d="m 13.958532,37.298158 c -2.286143,0.06632 -4.5736178,0.06254 -6.8604548,0.05578 0,0 -2.2477627,0.364904 -2.2477627,0.364904 v 0 c 2.0576054,-0.0059 4.1166154,-0.02058 6.1731885,0.05578 z" />
    <path
       style="fill:#000000;stroke-width:0.207169"
       id="path38"
       d="m 11.396683,39.471651 c -0.08311,0.124316 -0.159155,0.253921 -0.24934,0.372948 -0.724842,0.956654 -1.6034014,1.783905 -2.487611,2.581733 -1.1457827,1.033846 -1.4925583,1.286563 -2.6969583,2.259662 -1.732242,1.324847 -0.8816508,0.69366 -2.5488496,1.897689 0,0 2.2822588,0.218446 2.2822588,0.218446 v 0 c 1.5270637,-1.232523 0.7358935,-0.592437 2.373177,-1.920692 5.3957381,-4.369247 -2.6905222,2.17627 2.7983611,-2.25864 0.64425,-0.52054 1.685267,-1.362838 2.341942,-1.918776 0.533856,-0.451958 0.711776,-0.619716 1.177332,-1.043739 z" />
    <path
       style="fill:#000000;stroke-width:0.207169"
       id="path39"
       d="m 33.80302,34.940764 c 0.262252,-0.251631 0.375937,-0.374423 0.716653,-0.606694 0.260749,-0.177757 0.533942,-0.335751 0.805925,-0.494846 1.22498,-0.716545 2.476025,-1.320848 3.753102,-1.931114 0,0 -2.236814,-0.261848 -2.236814,-0.261848 v 0 c -1.328338,0.626113 -1.44038,0.676887 -2.763274,1.308538 -0.421941,0.201465 -0.844989,0.400547 -1.264939,0.606338 -0.694494,0.340329 -1.398238,0.678012 -2.019575,1.150383 z" />
    <path
       style="fill:#000000;stroke-width:0.207169"
       id="path40"
       d="m 34.503446,38.417049 c 1.489903,-0.300121 3.00975,-0.406197 4.521831,-0.518142 0,0 -2.536441,-0.390399 -2.536441,-0.390399 v 0 c -1.632408,0.149247 -3.264514,0.304197 -4.893267,0.491274 z" />
    <path
       style="fill:#000000;stroke-width:0.207169"
       id="path41"
       d="m 31.155813,41.523125 c 0.976316,0.66787 2.011853,1.238413 3.0254,1.843292 0.895278,0.534299 1.575687,0.952555 2.467165,1.496561 1.448721,0.907176 0.757333,0.465319 2.075978,1.322585 0,0 2.436061,-0.258768 2.436061,-0.258768 v 0 c -1.443731,-0.833298 -0.700649,-0.398717 -2.22827,-1.30548 -0.814407,-0.508561 -1.570456,-0.972351 -2.369793,-1.503678 -0.752735,-0.50035 -1.528049,-1.011259 -2.190013,-1.638014 -0.07442,-0.07047 -0.138534,-0.151572 -0.207801,-0.227356 z" />
  </g>
</svg>
