<?xml version="1.0" encoding="UTF-8" standalone="no"?>
<!-- Created with Inkscape (http://www.inkscape.org/) -->

<svg
   width="67.73333mm"
   height="67.733337mm"
   viewBox="0 0 67.73333 67.733337"
   version="1.1"
   id="svg1"
   inkscape:export-filename="lfo_floorp_docs.svg"
   inkscape:export-xdpi="8.5521889"
   inkscape:export-ydpi="8.5521889"
   xmlns:inkscape="http://www.inkscape.org/namespaces/inkscape"
   xmlns:sodipodi="http://sodipodi.sourceforge.net/DTD/sodipodi-0.dtd"
   xmlns="http://www.w3.org/2000/svg"
   xmlns:svg="http://www.w3.org/2000/svg">
  <sodipodi:namedview
     id="namedview1"
     pagecolor="#ffffff"
     bordercolor="#000000"
     borderopacity="0.25"
     inkscape:showpageshadow="2"
     inkscape:pageopacity="0.0"
     inkscape:pagecheckerboard="0"
     inkscape:deskcolor="#d1d1d1"
     inkscape:document-units="mm" />
  <defs
     id="defs1" />
  <g
     inkscape:label="Layer 1"
     inkscape:groupmode="layer"
     id="layer1">
    <path
       style="fill:#000000;stroke-width:0.264583"
       d="M 19.50284,41.976312 51.663152,34.226838"
       id="path1" />
    <path
       style="fill:#000000;stroke-width:0.264583"
       id="path2"
       d="m 43.805929,29.529092 c 3.92875,-0.05475 8.017631,-0.655849 11.439259,-2.726354 0.772803,-0.467641 1.449327,-1.078468 2.173989,-1.617702 0.582311,-0.66906 1.233622,-1.283828 1.74693,-2.007183 2.10629,-2.968185 2.97143,-6.740972 3.09754,-10.325687 0.0307,-0.87394 -0.0423,-1.748451 -0.0634,-2.622674 -0.11134,-2.1249515 -0.54732,-4.2112675 -1.19173,-6.2349465 -0.16414,-0.515466 -0.60197,-1.961138 -1.15321,-2.362102 -1.224489,-0.89066096 -2.597105,-1.55744196 -3.895656,-2.33616293 -0.327536,0.16067 -0.710161,0.239383 -0.982607,0.48201 -0.852962,0.75960397 -1.414653,2.17126993 -1.765496,3.16772493 -0.315701,0.896643 -0.575427,1.813279 -0.806813,2.735288 -0.61568,2.453294 -1.139758,5.4789815 -1.600544,7.9361965 -1.799185,9.795028 -2.173869,19.767896 -2.593856,29.694962 -0.14243,3.826883 -0.277659,7.653977 -0.356228,11.482787 -0.02989,1.4567 -0.09334,3.56174 0.0061,5.05756 0.04166,0.62695 0.148985,1.24781 0.223478,1.871711 0.155646,0.48374 0.261949,0.98625 0.466938,1.45124 0.86678,1.96618 2.467941,2.50653 4.656524,3.47851 0.317603,0.14105 0.717444,-0.0144 1.028787,-0.16883 0.979358,-0.48562 1.190077,-1.29662 1.670169,-2.20524 0.468236,-1.56199 0.857292,-2.4427 0.805019,-4.146471 -0.06039,-1.96836 -0.627838,-3.79838 -1.478619,-5.56276 -1.134875,-2.35353 -2.142585,-3.45781 -3.715665,-5.52198 -1.632773,-1.99153 -3.501647,-3.756332 -5.474289,-5.402638 -0.38827,-0.324038 -0.838265,-0.580274 -1.181741,-0.951458 -0.125982,-0.136147 -0.300171,-0.379992 -0.184499,-0.524997 0.193278,-0.242292 0.57893,-0.221554 0.868395,-0.33233 0.678373,-0.173968 1.350331,-0.375213 2.03512,-0.521906 0.957025,-0.205013 1.925307,-0.353433 2.887504,-0.532604 1.123699,-0.209245 2.248932,-0.410625 3.370175,-0.632648 3.208668,-0.635362 6.383804,-1.395965 9.562924,-2.161981 0,0 -2.64492,-1.820982 -2.64492,-1.820982 v 0 c -0.89745,0.249743 -1.79089,0.514361 -2.692346,0.749226 -2.490663,0.648912 -4.157144,1.029872 -6.712299,1.491721 -5.015498,0.90656 -1.84752,0.234394 -6.547962,0.979908 -0.778849,0.123529 -1.550354,0.289589 -2.325531,0.434385 -0.416694,0.248991 -1.002157,0.329647 -1.250084,0.746977 -0.147913,0.248978 0.132634,0.590984 0.3285,0.804304 0.373848,0.407162 0.890067,0.655974 1.325242,0.996805 2.099044,1.64398 4.087535,3.421676 5.811693,5.464963 1.555528,2.011245 2.567707,3.096385 3.673041,5.400855 0.805085,1.67849 1.336434,3.45362 1.353299,5.32722 0.01519,1.68707 -0.379116,2.41837 -0.913598,3.928291 -0.457402,0.73881 -0.715257,1.51502 -1.610223,1.82533 -0.275992,0.0957 -1.079204,-0.20858 -0.876337,0.002 0.606719,0.62858 1.373235,1.1804 2.220973,1.3915 0.904994,0.22535 -2.976395,-2.6651 -1.339881,-2.45619 -0.113779,-0.63088 -0.263076,-1.25636 -0.341334,-1.892621 -0.193617,-1.57413 -0.225576,-3.61518 -0.261514,-5.16797 -0.08999,-3.88805 -0.09147,-7.777226 -0.02074,-11.665701 0.04023,-1.614215 0.06337,-3.228943 0.120689,-4.84264 0.294511,-8.292168 0.952815,-16.597129 2.578031,-24.744936 0.72815,-3.230592 0.962766,-4.639498 1.950109,-7.7062445 0.283178,-0.879567 0.594336,-1.752218 0.96424,-2.598975 0.381344,-0.872958 1.01279,-2.179161 1.886333,-2.77352 0.229331,-0.156037 0.538517,-0.133263 0.807776,-0.199894 -0.800304,-0.494036 -1.5123,-1.17399696 -2.400906,-1.48210596 -0.377309,-0.130825 0.568066,0.573034 0.771012,0.91696796 0.259276,0.439401 0.421923,0.929931 0.600739,1.407763 0.75253,2.010919 1.253077,4.104922 1.423569,6.248319 0.037,0.8675145 0.130489,1.7344585 0.111019,2.6025435 -0.07897,3.519831 -0.961696,7.223587 -3.023838,10.13285 -0.499083,0.704107 -1.131811,1.303232 -1.697715,1.954851 -0.707218,0.5257 -1.365541,1.124542 -2.121656,1.577104 -3.01774,1.806221 -6.667983,2.463967 -10.144656,2.372749 -0.563941,-0.01479 -1.122747,-0.111506 -1.68412,-0.167256 z"
       inkscape:export-filename="floorp.svg"
       inkscape:export-xdpi="8.5521889"
       inkscape:export-ydpi="8.5521889" />
    <path
       style="fill:#000000;stroke-width:0.264583"
       id="path31"
       d="m 4.9101149,56.630133 c 0.00354,-0.136692 1.064e-4,-0.273743 0.010634,-0.410078 0.05707,-0.739164 0.1670957,-1.473568 0.2256078,-2.212618 0.1665348,-2.103458 0.1593262,-2.8845 0.2680623,-5.147929 0.059723,-1.243176 0.1293596,-2.485861 0.1940393,-3.728791 0.243536,-3.421161 0.3308739,-5.275937 0.7632772,-8.714629 0.3508938,-2.790489 0.8333509,-5.591913 1.4164881,-8.343627 0.2549221,-1.202931 0.5308788,-2.401877 0.8402891,-3.591957 0.276438,-1.063259 0.6111084,-2.110519 0.9166628,-3.165779 0.7963185,-2.570367 1.8724315,-5.043583 3.2362765,-7.363319 0.458609,-0.780038 1.302739,-2.082598 1.96369,-2.779113 0.247063,-0.260357 0.555165,-0.455078 0.832747,-0.682617 0.259262,-0.02077 1.035854,-0.09471 0.777787,-0.06231 -0.932079,0.11702 -1.953002,-0.08922 -2.80039,0.316238 -0.305925,0.146381 0.547372,0.405547 0.783842,0.64865 0.507361,0.52159 0.997828,1.280681 1.346665,1.911904 0.192501,0.348334 0.351423,0.714196 0.527134,1.071294 0.380352,0.884346 0.69305,1.793062 0.97417,2.712758 0.163726,0.535637 0.167052,0.781206 0.560616,1.207856 0.157105,0.170311 0.36442,0.286268 0.546629,0.429402 0.685375,0.292443 0.721502,0.348405 1.45717,0.499249 0.245642,0.05037 0.493566,0.107787 0.744316,0.109016 0.394024,0.0019 3.775067,0.542851 4.988823,-0.440963 0.254823,-0.206547 0.432002,-0.493722 0.648003,-0.740583 0.90942,-1.458 1.514794,-3.07347 2.218829,-4.633678 0.464656,-1.029718 0.417896,-0.908662 0.909802,-1.839037 0.190698,-0.277992 0.515839,-0.838822 0.847087,-1.026613 0.132342,-0.07503 0.600864,-0.08819 0.448831,-0.0827 -1.085601,0.0392 -2.19013,-0.03697 -3.253729,0.183988 -0.210434,0.04372 0.366527,0.231598 0.517641,0.384432 0.232487,0.235131 0.416346,0.513813 0.62452,0.770719 0.219266,0.377558 0.455025,0.746007 0.657797,1.132673 0.49503,0.94398 1.043331,2.206095 1.426294,3.184029 0.63876,1.631129 1.009645,2.749755 1.504427,4.451595 0.260093,0.894613 0.490183,1.797678 0.735274,2.696517 0.881507,3.228167 1.462675,6.52919 1.979123,9.83218 0.172278,1.101823 0.313986,2.208233 0.480417,3.310953 0.414737,2.747891 0.576342,3.646726 1.031499,6.364192 0.157769,0.963195 0.318887,1.925847 0.473303,2.889584 0.140144,0.874675 0.268467,1.751229 0.410379,2.625621 0.388475,2.393593 0.805924,4.782429 1.185053,7.17758 0.183841,1.2187 0.09283,0.649653 0.269343,1.707727 0,0 3.580445,-0.09151 3.580445,-0.09151 v 0 C 41.806411,56.146994 41.999954,56.710459 41.605047,55.497762 41.471319,55.076641 41.331055,54.657541 41.203862,54.234401 40.620845,52.294883 40.111495,50.324962 39.661767,48.350639 39.463203,47.478927 39.286596,46.602352 39.102451,45.72748 38.900093,44.766088 38.702327,43.803735 38.502265,42.841863 38.305838,41.8038 38.098424,40.767752 37.91299,39.727667 37.374397,36.706726 37.341475,36.218969 36.859438,33.171766 36.257731,29.368068 36.381087,30.275179 35.747334,26.49246 c -0.177282,-1.058155 -0.348192,-2.117368 -0.522288,-3.176051 -0.186317,-0.90358 -0.355301,-1.810908 -0.558951,-2.71074 -0.180292,-0.796626 -0.387294,-1.587032 -0.59264,-2.377571 -0.18319,-0.705249 -0.362932,-1.411804 -0.5729,-2.109548 -0.176167,-0.585426 -0.384876,-1.1606 -0.585004,-1.738273 -0.536752,-1.549348 -0.44618,-1.277337 -1.019035,-2.672977 -0.0063,-0.01186 -0.644776,-1.356678 -0.893246,-1.395378 -1.374513,-0.214085 -2.778369,-0.207015 -4.169249,-0.182935 -0.155445,0.0027 -0.276624,0.151312 -0.386,0.2618 -0.317174,0.320403 -0.4822,0.745063 -0.677432,1.138581 -0.240861,0.619052 -0.476682,1.240061 -0.718532,1.858727 -0.472774,1.209385 -0.956752,2.435411 -1.660896,3.534328 -0.213555,0.333283 -0.473303,0.634601 -0.709954,0.951901 -0.248293,0.201077 -0.469442,0.441318 -0.744879,0.603232 -0.216108,0.127038 -0.956335,0.211644 -0.708812,0.251314 0.926766,0.148534 1.875905,0.07792 2.814462,0.08616 0.248973,0.0022 -0.497597,-0.0312 -0.743849,-0.06797 -0.650315,-0.09711 -0.774319,-0.167472 -1.38288,-0.371861 -0.175066,-0.104683 -0.368424,-0.183557 -0.5252,-0.314048 -0.433105,-0.360493 -0.448207,-0.579929 -0.667368,-1.097079 -0.388019,-0.9156 -0.763692,-1.836693 -1.183048,-2.738667 -0.174649,-0.366833 -0.335045,-0.740799 -0.523948,-1.1005 -0.301735,-0.574549 -0.853998,-1.488997 -1.25459,-2.008024 -0.209876,-0.271925 -0.350898,-0.69095 -0.685263,-0.769629 -3.547194,-0.8346897 -3.121431,-0.8963521 -4.923679,-0.12575 -0.199018,0.253052 -0.419813,0.490401 -0.597053,0.759156 -0.532785,0.807879 -1.114672,1.998045 -1.502236,2.846985 -1.0958261,2.400355 -2.0082668,4.881981 -2.68894,7.432777 -0.2321623,1.060209 -0.4886648,2.11538 -0.696487,3.180628 -0.4970518,2.547767 -0.8510918,5.032194 -1.20748,7.605346 -0.200755,1.449467 -0.3808235,2.901733 -0.5765112,4.351893 -0.20208,1.497531 -0.4114565,2.99407 -0.6167885,4.491156 -0.1929685,1.406946 -0.385409,2.813963 -0.5781135,4.220943 -0.1992725,1.240261 -0.3761232,2.484334 -0.5978176,3.720785 -0.3918153,2.18526 -0.8734686,4.359402 -1.6003137,6.460366 -0.1438446,0.415785 -0.3363987,0.856271 -0.51181085,1.267881 z" />
    <ellipse
       style="fill:#000000;stroke-width:0.264583"
       id="path32"
       cx="16.210794"
       cy="28.174818"
       rx="1.9635608"
       ry="2.5115314" />
    <ellipse
       style="fill:#000000;stroke-width:0.264583"
       id="path32-6"
       cx="26.427452"
       cy="28.131794"
       rx="1.9635608"
       ry="2.5115314" />
    <path
       style="fill:#000000;stroke-width:0.264583"
       id="path34"
       d="m 18.745568,33.003535 c -0.05025,1.185709 -0.506757,2.308981 -0.87992,3.420491 -0.649667,1.935112 -0.320332,0.998511 -1.032411,2.928122 -0.249024,0.688353 -0.668396,1.870924 -0.952721,2.573192 -0.125494,0.309962 -0.246498,0.623054 -0.401543,0.91934 -0.0991,0.189381 -0.238631,0.354682 -0.357947,0.532021 0,0 3.658593,0.158388 3.658593,0.158388 v 0 c 0.363292,-1.365951 0.717814,-2.736083 1.183307,-4.071874 0.18155,-0.488347 0.352128,-0.980911 0.544649,-1.465035 0.661261,-1.662843 1.471723,-3.259942 2.144409,-4.917525 z" />
    <path
       style="fill:#000000;stroke-width:0.264583"
       id="path35"
       d="m 18.006853,37.72862 c 1.123641,0.932823 2.182304,1.932948 3.303681,2.870173 0.793803,0.636818 0.409316,0.331695 1.152801,0.916205 0,0 3.595245,-0.337087 3.595245,-0.337087 v 0 c -0.812276,-0.564322 -0.397144,-0.268859 -1.244129,-0.888167 -0.222666,-0.182237 -0.450459,-0.358383 -0.667996,-0.546714 -0.814627,-0.705257 -1.581523,-1.47888 -2.25459,-2.320165 z" />
    <path
       style="fill:#000000;stroke-width:0.264583"
       id="path36"
       d="M 10.504148,33.33696 C 10.274221,33.184028 10.041101,33.03579 9.8143665,32.878164 7.6098859,31.3456 5.4428821,29.754877 3.3516001,28.070534 2.4402983,27.336559 1.5564471,26.569143 0.65887057,25.818446 c 0,0 -2.05186107,0.178914 -2.05186107,0.178914 v 0 c 0.8826028,0.751885 1.78138825,1.48518 2.6478084,2.255658 1.948887,1.733079 2.3978613,2.210755 4.0675552,3.964773 0.3038927,0.319238 0.6076788,0.638805 0.9006996,0.968052 0.1357191,0.152498 0.2565601,0.317611 0.3848399,0.476419 z" />
    <path
       style="fill:#000000;stroke-width:0.264583"
       id="path37"
       d="m 8.9197107,37.326776 c -2.9559474,0.08366 -5.9136168,0.07889 -8.87046202,0.07037 0,0 -2.90632268,0.460317 -2.90632268,0.460317 v 0 c 2.66045226,-0.0074 5.3227206,-0.02596 7.9818377,0.07037 z" />
    <path
       style="fill:#000000;stroke-width:0.264583"
       id="path38"
       d="m 5.6072793,40.068584 c -0.1074639,0.156821 -0.205785,0.320315 -0.3223919,0.470464 -0.9372107,1.206796 -2.0731733,2.250352 -3.216443,3.256793 -1.48147956,1.304171 -1.92985508,1.622967 -3.4871256,2.850507 -2.2397625,1.671262 -1.139961,0.875035 -3.2956236,2.393889 0,0 2.9509257,0.275564 2.9509257,0.275564 v 0 c 1.97446992,-1.554798 0.95149904,-0.747345 3.0684814,-2.422906 6.9766065,-5.511697 -3.4788038,2.745311 3.6182371,-2.849219 0.8330054,-0.656648 2.1790241,-1.719186 3.0280956,-2.420488 0.6902677,-0.570134 0.9203153,-0.781756 1.522272,-1.316651 z" />
    <path
       style="fill:#000000;stroke-width:0.264583"
       id="path39"
       d="m 34.578329,34.352981 c 0.339088,-0.317426 0.486082,-0.472324 0.926621,-0.765328 0.337146,-0.224237 0.69038,-0.423543 1.042049,-0.624237 1.58388,-0.903904 3.201463,-1.666216 4.852704,-2.436053 0,0 -2.892166,-0.330314 -2.892166,-0.330314 v 0 c -1.717521,0.789826 -1.862389,0.853876 -3.572872,1.650688 -0.545563,0.254143 -1.092557,0.50528 -1.635546,0.764881 -0.897969,0.429316 -1.8079,0.855295 -2.611279,1.451179 z" />
    <path
       style="fill:#000000;stroke-width:0.264583"
       id="path40"
       d="m 35.483969,38.73823 c 1.926423,-0.378595 3.89156,-0.512408 5.846659,-0.653624 0,0 -3.279579,-0.492479 -3.279579,-0.492479 v 0 c -2.110679,0.188272 -4.220967,0.383738 -6.32692,0.61973 z" />
    <path
       style="fill:#000000;stroke-width:0.264583"
       id="path41"
       d="m 31.155531,42.656468 c 1.262362,0.8425 2.601296,1.562227 3.911796,2.325267 1.157581,0.674005 2.037339,1.201624 3.190007,1.887874 1.873173,1.144381 0.97922,0.586988 2.684208,1.668409 0,0 3.149788,-0.326429 3.149788,-0.326429 v 0 c -1.86672,-1.051185 -0.905928,-0.502973 -2.881119,-1.646831 -1.053015,-0.641537 -2.030574,-1.226597 -3.064105,-1.896853 -0.973275,-0.631179 -1.975744,-1.275678 -2.831653,-2.066314 -0.09623,-0.08889 -0.179123,-0.191204 -0.268684,-0.286805 z" />
  </g>
</svg>
